<svg width="24" height="24" fill="none" xmlns="http://www.w3.org/2000/svg"><path d="M4.209 17.81l-.747-.07.747.07zm15.582 0l.747-.07-.747.07zm-.761-8l-.747.071.747-.07zm-14.06 0l.747.071-.747-.07zM7.25 11a.75.75 0 001.5 0h-1.5zm8 0a.75.75 0 001.5 0h-1.5zM6.961 8.75H17.04v-1.5H6.96v1.5zm11.322 1.131l.762 8 1.493-.142-.762-8-1.493.142zM17.8 19.25H6.2v1.5h11.6v-1.5zM4.955 17.881l.762-8-1.493-.142-.762 8 1.493.142zM6.2 19.25a1.25 1.25 0 01-1.245-1.369l-1.493-.142A2.75 2.75 0 006.2 20.75v-1.5zm12.845-1.369A1.25 1.25 0 0117.8 19.25v1.5a2.75 2.75 0 002.738-3.01l-1.493.142zM17.039 8.75c.644 0 1.183.49 1.244 1.131l1.493-.142A2.75 2.75 0 0017.04 7.25v1.5zM6.96 7.25a2.75 2.75 0 00-2.737 2.49l1.493.141A1.25 1.25 0 016.961 8.75v-1.5zM8.75 7A3.25 3.25 0 0112 3.75v-1.5A4.75 4.75 0 007.25 7h1.5zM12 3.75A3.25 3.25 0 0115.25 7h1.5A4.75 4.75 0 0012 2.25v1.5zM7.25 7v4h1.5V7h-1.5zm8 0v4h1.5V7h-1.5z" fill="#000"/></svg>