<svg width="45" height="46" fill="none" xmlns="http://www.w3.org/2000/svg"><g clip-path="url(#clip0_158_24)"><path d="M43.46 21.73c0 12-9.73 21.73-21.73 21.73C9.729 43.46 0 33.73 0 21.73 0 9.729 9.729 0 21.73 0c12 0 21.73 9.729 21.73 21.73z" fill="#000"/><path d="M37.81 29.416c1.129-1.178 3.11-.692 3.566.875l3.537 12.168c.456 1.567-.956 3.04-2.54 2.65l-12.307-3.02c-1.585-.389-2.154-2.347-1.025-3.526l8.769-9.147z" fill="#000"/><path d="M20.143 25.675c.016-.93.122-1.664.317-2.203.195-.539.594-1.137 1.195-1.793l1.535-1.582c.657-.742.985-1.539.985-2.39 0-.82-.215-1.462-.645-1.922-.43-.47-1.055-.704-1.875-.704-.797 0-1.437.211-1.922.633-.484.422-.726.989-.726 1.7h-2.168c.015-1.266.465-2.286 1.347-3.06.891-.78 2.047-1.171 3.47-1.171 1.476 0 2.624.399 3.445 1.195.828.79 1.242 1.875 1.242 3.258 0 1.367-.633 2.715-1.899 4.043l-1.277 1.266c-.57.633-.856 1.543-.856 2.73h-2.168zm-.093 3.715c0-.352.105-.645.316-.879.219-.242.54-.363.961-.363.422 0 .742.121.961.363.219.235.328.527.328.88 0 .35-.11.644-.328.878-.219.227-.54.34-.961.34-.422 0-.742-.114-.96-.34-.212-.234-.317-.527-.317-.879z" fill="#fff"/></g><defs><clipPath id="clip0_158_24"><path fill="#fff" d="M0 0h45v45.173H0z"/></clipPath></defs></svg>