<svg xmlns="http://www.w3.org/2000/svg" height="800" width="1200" overflow="visible" viewBox="-27.88485 -10.23685 241.6687 61.4211"><path d="M.068 0h185.745c.14 0 .067 16.236.067 17.371v23.181c0 .658-4.462.296-5.092.296H.334C-.202 40.848.068 4.124.068 0" fill="none"/><path d="M.068 0h185.745c.14 0 .067 16.236.067 17.371v23.181c0 .658-4.462.296-5.092.296H.334C-.202 40.848.068 4.124.068 0" fill="none"/><path d="M164.322 40.837c-10.23 0-17.952-7.199-15.63-17.782 2.149-9.801 11.563-15.727 21.258-15.692 4.91.002 10.298 1.601 13.416 5.618 3.108 4.004 2.99 9.542 1.502 14.164-2.804 8.707-11.699 13.664-20.546 13.692m-.656-23.498c-2.306 2.497-3.146 6.4-3.146 9.704.016 1.222.153 2.478.713 3.584.485.959 2.542 1.815 1.827 2.718.153-1.211 1.656-.296 2.542-.296 1.284.004 2.547-.35 3.614-1.073 2.86-1.939 3.887-5.851 4.268-9.08.339-2.868.065-6.673-3.293-7.557-2.334-.629-4.915.239-6.525 2m-39.797-8.914h12c-.235 1.292-.47 2.585-.711 3.876 3.778-3.833 9.553-4.996 14.719-4.348-.708 3.544-1.418 7.087-2.126 10.631.016-.079-6.815.312-7.608.585-4.155 1.436-6.786 3.9-7.816 8.24-.349 1.485-1.862 12.51-2.842 12.511-3.865.006-7.73.011-11.597.017 1.994-10.505 3.987-21.008 5.981-31.512M99.088 37.598c-6.767-5.332-2.72-14.746-1.167-21.672h-4.4l1.371-7.44c.04-.215 3.19-.061 3.549-.061 1.351 0 1.055-1.399 1.287-2.62.079-.422.192-2.54.639-2.658 1.28-.341 2.561-.683 3.841-1.024 2.655-.708 5.31-1.415 7.964-2.123-.551 2.808-1.103 5.616-1.654 8.424h7.783c-.21 1.151-.422 2.303-.632 3.455-.127.692-.194 3.592-.741 4.046-.772.642-7.407-.737-7.584.045-1.246 5.498-5.721 17.286 4.327 15.979-.451 2.587-.901 5.175-1.354 7.762-.147.851-4.308.714-4.96.714-3.005-.032-5.891-.954-8.269-2.827m-30.696 2.934c-6.262-.904-11.137-4.779-12.314-11.207-1.199-6.544 1.679-14.405 7.085-18.337C68.409 7.173 76.73 6.12 82.69 8.765c3.231 1.434 5.935 4 7.228 7.322.479 1.23 1.882 9.796-.118 9.796-6.513 0-13.025-.05-19.537-.076-1.12-.005-2.241-.009-3.361-.014-1.373-.005 1.71 4.957 2.17 5.372 4.918 4.431 13.299 1.813 18.658-.378l-2.799 7.764c-.428 1.185-5.381 1.73-6.43 1.89-3.329.502-6.771.571-10.109.091m11.92-20.883c.463-3.238-1.438-5.648-4.734-5.682-3.534 0-6.285 2.402-7.352 5.682h12.086m-62.061 20.3c1.201-5.432 2.402-10.863 3.604-16.295.323-1.464 1.443-4.105.788-5.627-.966-2.244-4.075-1.435-5.294.025-.669.803-.81 1.794-1.03 2.771-1.354 6.038-2.71 12.077-4.065 18.115-.398 1.775-2.186 1.011-3.871 1.011H.069c1.469-6.839 2.728-13.76 4.432-20.543 2.156-8.58 8.871-13.283 17.704-12.17 1.852.233 3.646.828 5.214 1.85.583.38 2.135 2.257 2.659 2.318 3.192-2.489 7.375-4.257 11.464-4.257 3.126 0 6.577.499 8.964 2.712 2.907 2.704 2.955 6.987 2.186 10.605-.753 3.542-1.507 7.083-2.26 10.625-.167.788-1.447 8.86-2.038 8.86H36.493c1.102-5.357 2.204-10.715 3.305-16.073.306-1.484 1.411-4.197.746-5.733-.968-2.236-4.06-1.448-5.288.02-.693.828-.808 1.805-1.008 2.812-1.186 5.976-2.373 11.955-3.559 17.932-.364 1.836-2.208 1.043-3.934 1.043-2.835-.001-5.669-.001-8.504-.001" fill="#E01F22"/></svg>