<svg version="1.1" id="Layer_1" xmlns="http://www.w3.org/2000/svg" x="0" y="0" viewBox="0 0 502 502" xml:space="preserve"><path d="M251 502a9.998 9.998 0 01-8.473-4.689C236.212 487.236 87.87 249.582 87.87 163.13 87.87 73.18 161.05 0 251 0s163.13 73.18 163.13 163.13c0 86.452-148.342 324.106-154.657 334.181A9.998 9.998 0 01251 502zm0-482c-78.922 0-143.13 64.208-143.13 143.13 0 32.929 26.05 99.093 75.333 191.34 27.067 50.662 54.401 96.442 67.797 118.444 13.396-22.001 40.729-67.782 67.797-118.444 49.283-92.247 75.333-158.412 75.333-191.34C394.13 84.208 329.922 20 251 20zm0 229.181c-47.448 0-86.051-38.603-86.051-86.051S203.552 77.079 251 77.079s86.051 38.602 86.051 86.051-38.603 86.051-86.051 86.051zm0-152.102c-36.421 0-66.051 29.63-66.051 66.051 0 36.421 29.63 66.051 66.051 66.051s66.051-29.63 66.051-66.051c0-36.421-29.63-66.051-66.051-66.051z"/><path d="M133.949 173.13c-5.522 0-10-4.477-10-10 0-24.107 6.783-47.57 19.617-67.852a127.404 127.404 0 0150.985-46c4.945-2.458 10.947-.438 13.404 4.508s.438 10.948-4.508 13.404c-36.7 18.229-59.499 54.991-59.499 95.939.001 5.524-4.476 10.001-9.999 10.001zM302.994 68.238a9.951 9.951 0 01-4.44-1.046C283.708 59.818 267.709 56.079 251 56.079c-5.522 0-10-4.477-10-10s4.478-10 10-10c19.823 0 38.815 4.441 56.45 13.2 4.946 2.457 6.965 8.458 4.508 13.404a10 10 0 01-8.964 5.555z"/></svg>