<svg width="68" height="68" viewBox="0 0 68 68" fill="none" xmlns="http://www.w3.org/2000/svg">
<circle cx="34" cy="34" r="33" fill="white" stroke="#ABB2C3" stroke-width="2"/>
<path d="M44.0618 41.9906L40.5342 40.815L39.2678 38.2821C40.4087 37.1209 41.2008 35.5844 41.4679 33.9818L41.6259 33.0352H42.9766C44.2043 33.0352 45.2031 32.0363 45.2031 30.8086V26.1328C45.2031 19.9942 40.2089 15 34.0703 15C27.9159 15 22.9375 19.9799 22.9375 26.1328V30.8086C22.9375 31.7761 23.558 32.6011 24.4219 32.9075V33.7773C24.4219 35.0051 25.4207 36.0039 26.6484 36.0039H27.3002C27.622 36.7028 28.0384 37.3502 28.5452 37.9317C28.6503 38.0525 28.7599 38.1696 28.8722 38.2835L27.6065 40.815L24.0788 41.9907C19.9771 43.3584 17 47.6764 17 52.2578C17 52.6677 17.3323 53 17.7422 53H50.3984C50.8083 53 51.1406 52.6677 51.1406 52.2578C51.1406 47.6764 48.1636 43.3584 44.0618 41.9906ZM43.7188 30.8086C43.7188 31.2178 43.3858 31.5508 42.9766 31.5508H41.8438C42.0325 30.0894 42.1582 28.5343 42.2088 27.0027C42.2103 26.9595 42.2114 26.9175 42.2128 26.875H43.7188V30.8086ZM25.1641 31.5508C24.7548 31.5508 24.4219 31.2178 24.4219 30.8086V26.875H25.9284C25.9308 26.9524 25.9334 27.0302 25.9363 27.1085C25.9364 27.1112 25.9365 27.1138 25.9366 27.1164C25.9366 27.1167 25.9366 27.1169 25.9366 27.1171C25.9886 28.6068 26.1127 30.1216 26.297 31.5507H25.1641V31.5508ZM26.6484 34.5195C26.2392 34.5195 25.9062 34.1866 25.9062 33.7773V33.0352H26.5147L26.6726 33.9821C26.7028 34.1621 26.7398 34.3414 26.7826 34.5195H26.6484ZM25.9075 25.3906H24.4501C24.826 20.4164 28.9772 16.4844 34.0703 16.4844C39.1408 16.4844 43.3102 20.4159 43.6905 25.3906H42.2332C42.1798 21.2917 38.8419 17.9688 34.7346 17.9688H33.4061C29.2989 17.9688 25.9609 21.2917 25.9075 25.3906ZM33.4061 19.4531H34.7346C38.0602 19.4531 40.7519 22.1733 40.75 25.4953C40.75 25.7288 40.7481 25.9322 40.7442 26.1172C40.7442 26.1196 40.7441 26.1221 40.7441 26.1245L39.8158 25.9919C37.2939 25.6318 34.9126 24.4411 33.1107 22.6393C32.9715 22.5001 32.7828 22.4219 32.5859 22.4219C30.5927 22.4219 28.6847 23.33 27.4234 24.8643C27.7343 21.8422 30.2891 19.4531 33.4061 19.4531ZM28.3213 34.5195C27.9498 33.2836 27.5247 29.6468 27.4307 27.3164L28.4296 25.9844C29.347 24.7616 30.7743 24.0018 32.2926 23.9146C34.2904 25.8158 36.8748 27.0713 39.6059 27.4613L40.6986 27.6174C40.6255 29.1675 40.4763 30.7229 40.2625 32.1535C40.2624 32.154 40.2623 32.1545 40.2622 32.155C40.1943 32.6149 40.1407 32.9109 40.0038 33.7376C39.6107 36.0952 37.8516 38.2271 35.5294 38.8077C34.5737 39.0464 33.5668 39.0463 32.6116 38.8077C31.1616 38.4453 29.8321 37.442 28.974 36.0039H30.487C30.7934 36.8677 31.6183 37.4883 32.5859 37.4883H34.0703C35.3005 37.4883 36.2969 36.492 36.2969 35.2617C36.2969 34.034 35.298 33.0352 34.0703 33.0352H32.5859C31.5968 33.0352 30.7841 33.674 30.4858 34.5195H28.3213ZM32.5235 40.3098C33.0326 40.417 33.5516 40.4719 34.0703 40.4719C34.4764 40.4719 34.8825 40.4379 35.284 40.372L33.9726 41.7589L32.5235 40.3098ZM32.9522 42.8379L30.5981 45.3273C29.9501 44.0868 29.3932 42.7958 28.9365 41.4741L29.8205 39.7061L32.9522 42.8379ZM38.1944 39.4546L39.204 41.4741C38.7465 42.798 38.1895 44.0894 37.5421 45.3285L35.0225 42.8089L38.1944 39.4546ZM31.8438 35.2617C31.8438 34.852 32.1761 34.5195 32.5859 34.5195H34.0703C34.4796 34.5195 34.8125 34.8525 34.8125 35.2617C34.8125 35.6716 34.4801 36.0039 34.0703 36.0039H32.5859C32.1767 36.0039 31.8438 35.671 31.8438 35.2617ZM18.5141 51.5156C18.8082 47.8389 21.2551 44.497 24.5482 43.3988L27.6724 42.3577C28.2447 43.9404 28.9538 45.4787 29.7848 46.94C29.7863 46.9425 29.7876 46.945 29.789 46.9475C29.789 46.9475 29.7891 46.9475 29.7891 46.9476C30.3963 48.0155 31.0797 49.0591 31.8206 50.0499L32.7336 51.5156H18.5141ZM34.0703 50.854L33.0638 49.2381C33.0525 49.22 33.0405 49.2024 33.0277 49.1853C32.4267 48.3836 31.866 47.5451 31.3554 46.687L34.0023 43.8879L36.7912 46.6769C36.2772 47.5413 35.7146 48.3832 35.1131 49.1852C35.0767 49.2336 35.1283 49.1572 34.0703 50.854ZM35.407 51.5156L36.32 50.05C37.0641 49.0554 37.7525 48.0034 38.3657 46.923C38.3694 46.9164 38.3729 46.9098 38.3766 46.9032C38.3771 46.9024 38.3775 46.9017 38.378 46.9009C39.1985 45.4536 39.9001 43.9286 40.4683 42.3577L43.5924 43.3988C46.8855 44.497 49.3324 47.8389 49.6266 51.5156H35.407Z" fill="#C01818"/>
</svg>
