<svg width="17" height="20" fill="none" xmlns="http://www.w3.org/2000/svg"><path d="M12.143 2.561c-.515-.681-1.325-1.313-2.035-1.587C9.273.65 7.865.597 7.082.857c-.783.261-1.107.444-1.678.947-2.715 2.393-1.755 6.8 1.71 7.853 1.833.556 3.833-.121 5.03-1.703 1.134-1.5 1.134-3.892 0-5.393zM10.56 11.29a6.382 6.382 0 01-4.274 0c-.962-.338-2.136-.226-3.276.312-.77.364-1.845 1.483-2.241 2.335-.317.681-.329.756-.367 2.353-.038 1.593-.031 1.663.201 2.002.133.193.372.448.532.567.289.214.35.215 7.288.215 6.937 0 6.999-.001 7.287-.215.16-.119.4-.374.531-.567.231-.338.239-.416.207-2.002-.033-1.614-.041-1.664-.368-2.355-.42-.886-1.48-1.972-2.295-2.353-1.132-.528-2.261-.63-3.225-.292z" fill="#000"/></svg>